<svg xmlns="http://www.w3.org/2000/svg" viewBox="0 0 600 300" font-family="Arial,Helvetica,sans-serif">
<defs><linearGradient id="bg" x1="0" y1="0" x2="1" y2="1"><stop offset="0" stop-color="#1e88e5"/><stop offset="1" stop-color="#06163f"/></linearGradient><filter id="sh" x="-15%" y="-15%" width="130%" height="140%"><feDropShadow dx="0" dy="8" stdDeviation="9" flood-color="#000" flood-opacity=".38"/></filter></defs>
<rect width="600" height="300" fill="url(#bg)"/>
<g filter="url(#sh)"><rect x="70" y="26" width="460" height="258" rx="14" fill="#050a2e"/><path d="M70 40a14 14 0 0 1 14-14h432a14 14 0 0 1 14 14v12H70z" fill="#0c1442"/><circle cx="88" cy="39" r="4" fill="#ff6058"/><circle cx="102" cy="39" r="4" fill="#ffbd2e"/><circle cx="116" cy="39" r="4" fill="#28c940"/><rect x="210" y="32" width="180" height="14" rx="7" fill="#ffffff" fill-opacity=".85"/><text x="300" y="42.5" font-size="8" fill="#9fb0d8" text-anchor="middle">timigraphics-portfolio.netlify.app</text><clipPath id="c3"><rect x="70" y="26" width="460" height="258" rx="14"/></clipPath><g clip-path="url(#c3)"><defs><radialGradient id="og" cx=".85" cy=".9" r=".7"><stop offset="0" stop-color="#22b8f0" stop-opacity=".55"/><stop offset="1" stop-color="#22b8f0" stop-opacity="0"/></radialGradient></defs><rect x="70" y="52" width="460" height="232" fill="url(#og)"/><text x="88" y="74" font-size="10" font-weight="800" fill="#fff" letter-spacing=".5">TIMI GRAPHICS</text><text x="372" y="74" font-size="7.5" fill="#c9d8ff">Home</text><text x="412" y="74" font-size="7.5" fill="#c9d8ff">Services</text><text x="452" y="74" font-size="7.5" fill="#c9d8ff">Work</text><text x="492" y="74" font-size="7.5" fill="#c9d8ff">Reviews</text><rect x="88" y="98" width="86" height="14" rx="7" fill="#22b8f0" fill-opacity=".15" stroke="#22b8f0"/><text x="131" y="108" font-size="6.5" fill="#22b8f0" text-anchor="middle" font-weight="700">3+ YEARS OF EXPERIENCE</text><text x="88" y="146" font-size="24" font-weight="800" fill="#fff">Turning Ideas</text><text x="88" y="172" font-size="24" font-weight="800" fill="#fff">Into <tspan fill="#22b8f0">Stunning Visuals</tspan></text><text x="88" y="192" font-size="8" fill="#9fb0d8">Professional Graphic Design &amp; Brand Identity for modern businesses.</text><rect x="88" y="206" width="80" height="22" rx="6" fill="#1e88e5"/><text x="128" y="220" font-size="8.5" font-weight="700" fill="#fff" text-anchor="middle">View My Work</text><rect x="176" y="206" width="80" height="22" rx="6" fill="none" stroke="#22b8f0"/><text x="216" y="220" font-size="8.5" font-weight="700" fill="#fff" text-anchor="middle">WhatsApp Me</text><rect x="392" y="120" width="112" height="140" rx="10" fill="#1e88e5" fill-opacity=".25" stroke="#22b8f0" stroke-opacity=".5"/><circle cx="448" cy="158" r="20" fill="#f1c7a4"/><path d="M414 260a34 42 0 0 1 68 0z" fill="#1e88e5"/></g></g>
</svg>
